<?xml version="1.0" encoding="UTF-8"?>
<svg xmlns="http://www.w3.org/2000/svg" viewBox="0 0 64 64" width="512" height="512"><g id="outline"><path d="M31,7a1,1,0,0,0-1-1H28.78l-.81-3.243A1,1,0,0,0,27,2H23a1,1,0,0,0-.97.757L21.22,6H20a1,1,0,0,0-1,1V58a4.158,4.158,0,0,0,4,4H41a4.158,4.158,0,0,0,4-4V29a9.01,9.01,0,0,0-9-9H31ZM23.781,4h2.438l.5,2H23.281ZM21,8h8v2H21Zm0,4h8v4H21Zm0,6h8v2H21Zm15,4a7.008,7.008,0,0,1,7,7V58a2.136,2.136,0,0,1-2,2H23a2.136,2.136,0,0,1-2-2V22Z"/><path d="M37,35a3,3,0,0,0,3-3V28a3,3,0,0,0-6,0v4A3,3,0,0,0,37,35Zm-1-7a1,1,0,0,1,2,0v4a1,1,0,0,1-2,0Z"/><rect x="23" y="56" width="4" height="2"/><rect x="25" y="25" width="2" height="2"/><rect x="27" y="28" width="2" height="2"/><path d="M49.661,5.044a5.1,5.1,0,0,0-4.648-2.678A4.167,4.167,0,0,0,41.03,5.757,1,1,0,0,0,41,6c0-1.991-1.546-4-5-4H32a1,1,0,0,0-.895,1.447l1.9,3.805A4.005,4.005,0,0,0,37,11h.33A4.081,4.081,0,0,0,41,13a4.57,4.57,0,0,0,3.245-1.6,4.7,4.7,0,0,0,2.358.591,4.217,4.217,0,0,0,2.715,1.051,3.62,3.62,0,0,0,1.4-.277A3.87,3.87,0,0,0,53,9,3.75,3.75,0,0,0,49.661,5.044Zm.286,5.875a2.083,2.083,0,0,1-2.24-.626A1,1,0,0,0,47,10a2.7,2.7,0,0,1-2.11-.583c-.1-.079-.2-.158-.316-.235A.993.993,0,0,0,44,9a.981.981,0,0,0-.257.034,1,1,0,0,0-.648.54A2.716,2.716,0,0,1,41,11a2,2,0,0,1-2.034-1.261A1,1,0,0,0,38,9H37a2,2,0,0,1-2-2,1,1,0,0,0-.1-.447L33.618,4H36c2.212,0,3,1.033,3,2A2,2,0,0,0,43,6.146a2.17,2.17,0,0,1,2.089-1.781A3.144,3.144,0,0,1,48,6.218a1,1,0,0,0,.152.344.973.973,0,0,0,.878.451c.034,0,.068,0,.1-.01A1.814,1.814,0,0,1,51,9,1.919,1.919,0,0,1,49.947,10.919Z"/><path d="M26.125,46.485A1,1,0,0,0,27,47h3v5a1,1,0,0,0,.749.968A.988.988,0,0,0,31,53a1,1,0,0,0,.874-.514l5-9A1,1,0,0,0,36,42H34.767l2.09-3.485A1,1,0,0,0,36,37H32a1,1,0,0,0-.848.47l-5,8A1,1,0,0,0,26.125,46.485ZM32.555,39h1.678l-2.09,3.485A1,1,0,0,0,33,44h1.3L32,48.141V46a1,1,0,0,0-1-1h-2.2Z"/></g></svg>
